<?xml version="1.0" encoding="UTF-8"?>
<!DOCTYPE svg PUBLIC "-//W3C//DTD SVG 1.1//EN" "http://www.w3.org/Graphics/SVG/1.1/DTD/svg11.dtd">
<svg xmlns="http://www.w3.org/2000/svg" version="1.1" width="196px" height="328px" style="shape-rendering:geometricPrecision; text-rendering:geometricPrecision; image-rendering:optimizeQuality; fill-rule:evenodd; clip-rule:evenodd" xmlns:xlink="http://www.w3.org/1999/xlink">
<g><path style="opacity:0.744" fill="#fefefe" d="M 81.5,21.5 C 83.8568,21.3367 86.1902,21.5034 88.5,22C 95.2319,24.8616 102.232,26.8616 109.5,28C 124.845,33.758 140.512,38.758 156.5,43C 166.103,46.9348 172.603,53.7682 176,63.5C 176.667,122.167 176.667,180.833 176,239.5C 170.427,247.449 165.094,247.449 160,239.5C 159.169,181.596 159.336,123.763 160.5,66C 158.874,63.3723 156.874,61.039 154.5,59C 130.159,51.9877 105.826,44.6544 81.5,37C 76.208,31.8349 76.208,26.6682 81.5,21.5 Z"/></g>
<g><path style="opacity:0.82" fill="#fefefe" d="M 58.5,42.5 C 61.1873,42.3359 63.854,42.5026 66.5,43C 90.7436,50.9165 115.077,58.5832 139.5,66C 144.083,69.9123 147.917,74.4123 151,79.5C 151.667,137.833 151.667,196.167 151,254.5C 146.729,262.691 140.396,264.691 132,260.5C 131.667,203.833 131.333,147.167 131,90.5C 128.131,87.2959 124.965,84.4626 121.5,82C 98.5631,75.2602 75.8965,68.0936 53.5,60.5C 52.1667,56.1667 52.1667,51.8333 53.5,47.5C 55.5212,46.1455 57.1879,44.4788 58.5,42.5 Z"/></g>
<g><path style="opacity:0.945" fill="#fefefe" d="M 29.5,70.5 C 34.5687,70.8496 39.5687,71.6829 44.5,73C 56.071,77.1906 67.7376,81.1906 79.5,85C 88.3484,86.7636 97.0151,89.097 105.5,92C 111.92,94.9199 116.92,99.4199 120.5,105.5C 122.178,165.984 121.678,226.317 119,286.5C 115.938,290.943 111.771,292.443 106.5,291C 82.5647,283.351 58.5647,276.018 34.5,269C 29.2866,265.454 25.12,260.954 22,255.5C 21.9887,195.834 22.322,136.168 23,76.5C 24.4936,73.6865 26.6603,71.6865 29.5,70.5 Z"/></g>
<g><path style="opacity:0.656" fill="#fbf9fe" d="M 74.5,297.5 C 72.5,298.833 70.8333,300.5 69.5,302.5C 65.3963,302.715 61.8963,301.048 59,297.5C 57.6727,289.83 60.8393,286.33 68.5,287C 72.9571,289.079 74.9571,292.579 74.5,297.5 Z"/></g>
<g><path style="opacity:0.502" fill="#8071f0" d="M 74.5,297.5 C 75.1667,301.5 73.5,303.167 69.5,302.5C 70.8333,300.5 72.5,298.833 74.5,297.5 Z"/></g>
</svg>
